<?xml version="1.0" standalone="no"?>
<!DOCTYPE svg PUBLIC "-//W3C//DTD SVG 1.1//EN" "http://www.w3.org/Graphics/SVG/1.1/DTD/svg11.dtd" >
<svg xmlns="http://www.w3.org/2000/svg" xmlns:xlink="http://www.w3.org/1999/xlink" version="1.1">
<metadata>
Created by FontForge 20141014 at Sun Nov 02 14:32:44 2014

</metadata>
<defs>
<font id="vt-icons" horiz-adv-x="1024" >
  <font-face 
    font-family="vt-icons"
    font-weight="400"
    font-stretch="normal"
    units-per-em="1024"
    panose-1="0 0 0 0 0 0 0 0 0 0"
    ascent="960"
    descent="-64"
    bbox="-1 -64 1025 963.5"
    underline-thickness="0"
    underline-position="0"
    unicode-range="U+0001-FFFD"
  />
<missing-glyph horiz-adv-x="0" 
 />
    <glyph glyph-name=".notdef" unicode="&#xfffd;" horiz-adv-x="0" 
 />
    <glyph glyph-name="glyph1" horiz-adv-x="0" 
d="M0 0v0v0v0z" />
    <glyph glyph-name="glyph1" horiz-adv-x="0" 
d="M0 0v0v0v0z" />
    <glyph glyph-name="uni0001" horiz-adv-x="0" 
d="M0 0v0v0v0z" />
    <glyph glyph-name="space" unicode=" " horiz-adv-x="512" 
d="M0 0v0v0v0z" />
    <glyph glyph-name="uniE600" unicode="&#xe600;" 
d="M512 960q-106 0 -199.5 -40t-162.5 -110q-70 -69 -110 -162.5t-40 -199.5t40 -199.5t110 -162.5q69 -70 162.5 -110t199.5 -40t199.5 40t162.5 110q70 69 110 162.5t40 199.5t-40 199.5t-110 162.5q-69 70 -162.5 110t-199.5 40v0zM520 503l-143 -345h-25l-155 345
q-9 21 -18 35t-19 23t-22.5 13t-28.5 4v26h226v-26q-22 0 -34.5 -3t-17.5 -11q-4 -9 -1 -23.5t12 -37.5l91 -203l85 203q8 21 11.5 35t-0.5 23t-15.5 13t-32.5 4v26h178v-26q-17 0 -30 -3.5t-24 -12.5q-10 -9 -19 -23.5t-18 -35.5v0zM546 559v31q29 6 49 19t33 33
q13 19 20.5 44.5t10.5 56.5h43v-139h111v-45h-111v-256q0 -23 3.5 -40.5t10.5 -28.5q7 -12 17.5 -18t25.5 -6q9 0 19 3t20 9q11 6 22 14t22 19l22 -22q-14 -16 -30.5 -29.5t-34.5 -23.5q-17 -10 -35 -15.5t-34 -5.5q-26 0 -47.5 8.5t-37.5 26.5t-24.5 45t-8.5 64v256h-66v0z
" />
    <glyph glyph-name="uniE601" unicode="&#xe601;" 
d="M1024 704q0 17 -5.5 32t-15.5 28q-10 12 -23.5 21t-29.5 13l-417 96q-5 1 -10.5 1.5t-10.5 0.5t-10.5 -0.5t-11.5 -1.5l-416 -96q-16 -4 -29.5 -13t-23.5 -21q-10 -13 -15.5 -28t-5.5 -32t5.5 -32t15.5 -28q10 -12 23.5 -21t29.5 -13l86 -19v-271q0 -32 19 -61t61 -51
q43 -22 109.5 -35t162.5 -13t162.5 13t109.5 35q42 22 61 51t19 61v271l86 19q16 4 29.5 13t23.5 21q10 13 15.5 28t5.5 32v0zM800 320q0 -13 -18 -30t-54 -31q-36 -15 -90 -25t-126 -10t-126 10t-90 25q-36 14 -54 31t-18 30v256l267 -62q5 -1 10.5 -1.5t10.5 -0.5
t10.5 0.5t11.5 1.5l266 62v-256v0zM519 577q-2 -1 -3.5 -1h-3.5h-3.5t-3.5 1l-416 96q-6 1 -10.5 4t-7.5 7t-5 9t-2 11t2 11t5 9t7.5 7t10.5 4l416 96q2 1 3.5 1h3.5h3.5t3.5 -1l416 -96q6 -1 10.5 -4t7.5 -7t5 -9t2 -11t-2 -11t-5 -9t-7.5 -7t-10.5 -4l-416 -96v0zM928 544
q0 7 2.5 12.5t6.5 10.5q5 4 10.5 6.5t12.5 2.5t12.5 -2.5t10.5 -6.5q4 -5 6.5 -10.5t2.5 -12.5v-288q0 -7 -2.5 -12.5t-6.5 -10.5q-5 -4 -10.5 -6.5t-12.5 -2.5t-12.5 2.5t-10.5 6.5q-4 5 -6.5 10.5t-2.5 12.5v288v0zM960 192q13 0 25 -15t20 -36q9 -20 14 -42t5 -35t-5 -25
t-14 -20q-8 -9 -20 -14t-25 -5t-25 5t-20 14q-9 8 -14 20t-5 25t5 35t14 42q8 21 20 36t25 15v0z" />
    <glyph glyph-name="uniE602" unicode="&#xe602;" 
d="M941 877q-20 20 -42.5 35.5t-47.5 25.5q-24 11 -49.5 16.5t-51.5 5.5q-21 0 -41.5 -4t-39.5 -12q-19 -7 -36.5 -18.5t-31.5 -25.5l-156 -157l-0.5 -0.5l-0.5 -0.5q-1 0 -1 -0.5v-0.5v0l-330 -333q-6 -6 -11 -12.5t-9 -12.5q-4 -7 -7.5 -14.5t-5.5 -15.5l-75 -272
q0 -1 -2.5 -13t-2.5 -20q0 -23 9 -43.5t24 -35.5t35.5 -24t43.5 -9q9 0 23 3l14 3l271 71q8 3 15.5 6t14.5 7t13 9t12 11l488 492q34 33 49 76t11 89q-3 46 -23.5 91t-58.5 83v0zM512 199q-1 10 -3 21t-4 21q-3 11 -7 21.5t-9 20.5l303 302q7 -22 8.5 -44t-2.5 -43
q-3 -20 -12.5 -39t-25.5 -34v0v-1v0l-247 -249v11.5t-1 12.5v0zM473 312q-4 7 -9 14.5t-10 14.5t-11 13.5t-12 12.5q-7 7 -15 14t-16 13q-8 5 -17 10.5t-17 10.5l305 305q9 -4 17.5 -9t17.5 -10q8 -6 16 -13l16 -14q6 -7 12 -13.5t11 -13.5q5 -8 9.5 -15t8.5 -15l-306 -305
v0zM336 430q-12 4 -23 7.5t-23 6.5q-11 2 -23 3.5t-23 1.5l246 249q14 13 31.5 22t36.5 13q18 5 38.5 4.5t40.5 -5.5l-301 -302v0zM133 4q-2 -1 -9 -2.5t-12 -1.5q-10 0 -19 4t-15 10q-7 7 -10.5 15.5t-3.5 18.5q0 4 1.5 9.5t1.5 8.5l34 122q14 0 28 -2.5t28 -7.5
q13 -6 26 -14.5t25 -19.5q12 -12 20.5 -25t14.5 -27q5 -14 7.5 -28.5t1.5 -28.5l-119 -31v0zM284 44q0 16 -3.5 32t-10.5 32t-16.5 30.5t-23.5 27.5q-12 13 -26.5 23t-29.5 16q-15 7 -31.5 11t-32.5 5l32 115q2 6 5 11.5t7 10.5q24 17 53.5 23.5t60.5 1.5t61.5 -20t56.5 -41
q27 -27 42.5 -59.5t19.5 -65.5q4 -32 -4.5 -63t-29.5 -54q-3 -2 -6 -3l-6 -2l-118 -31v0zM918 583l-54 -54q0 5 0.5 10.5t-0.5 11.5q-2 23 -8 45.5t-17 44.5q-10 21 -24 41t-32 37q-20 20 -42 35t-47 26q-24 10 -49.5 15.5t-51.5 5.5l53 54q10 10 22 17.5t25 12.5
q13 6 27.5 8.5t29.5 2.5q20 0 39 -4.5t38 -12.5t36 -20t32 -27q15 -14 26 -30t20 -33q8 -17 12.5 -34.5t6.5 -35.5q1 -17 -1.5 -33t-7.5 -31q-5 -14 -13.5 -27.5t-19.5 -24.5v0z" />
    <glyph glyph-name="uniE603" unicode="&#xe603;" 
d="M384 832q0 27 10 50t27 41q18 17 41 27t50 10t50 -10t41 -27q17 -18 27 -41t10 -50t-10 -50t-27 -41q-18 -17 -41 -27t-50 -10t-50 10t-41 27q-17 18 -27 41t-10 50v0zM656 720q0 26 10 49.5t27 40.5t40.5 27.5t50.5 10.5q26 0 49.5 -10.5t40.5 -27.5t27.5 -40.5
t10.5 -49.5q0 -27 -10.5 -50.5t-27.5 -40.5t-40.5 -27t-49.5 -10q-27 0 -50.5 10t-40.5 27t-27 40.5t-10 50.5v0zM832 448q0 13 5 25t14 20q8 9 20 14t25 5t25 -5t20 -14q9 -8 14 -20t5 -25t-5 -25t-14 -20q-8 -9 -20 -14t-25 -5t-25 5t-20 14q-9 8 -14 20t-5 25v0zM720 176
q0 14 5 25.5t13 20.5q9 8 20.5 13t25.5 5q13 0 24.5 -5t20.5 -13q8 -9 13.5 -20.5t5.5 -25.5q0 -13 -5.5 -24.5t-13.5 -20.5q-9 -8 -20.5 -13.5t-24.5 -5.5q-14 0 -25.5 5.5t-20.5 13.5q-8 9 -13 20.5t-5 24.5v0zM448 64v0v0q0 13 5 25t14 20q8 9 20 14t25 5t25 -5t20 -14
q9 -8 14 -20t5 -25v0v0q0 -13 -5 -25t-14 -20q-8 -9 -20 -14t-25 -5t-25 5t-20 14q-9 8 -14 20t-5 25v0zM176 176v0v0q0 14 5.5 25.5t13.5 20.5q9 8 20.5 13t24.5 5q14 0 25.5 -5t20.5 -13q8 -9 13 -20.5t5 -25.5v0v0q0 -13 -5 -24.5t-13 -20.5q-9 -8 -20.5 -13.5
t-25.5 -5.5q-13 0 -24.5 5.5t-20.5 13.5q-8 9 -13.5 20.5t-5.5 24.5v0zM144 720v0v0q0 19 8 36.5t21 30.5t30.5 21t36.5 8q20 0 37.5 -8t30.5 -21t20.5 -30.5t7.5 -36.5v0v0q0 -20 -7.5 -37.5t-20.5 -30.5t-30.5 -20.5t-37.5 -7.5q-19 0 -36.5 7.5t-30.5 20.5t-21 30.5
t-8 37.5v0zM56 448q0 15 5.5 28t15.5 23t23 15.5t28 5.5t28 -5.5t23 -15.5t15.5 -23t5.5 -28t-5.5 -28t-15.5 -23t-23 -15.5t-28 -5.5t-28 5.5t-23 15.5t-15.5 23t-5.5 28v0z" />
    <glyph glyph-name="uniE604" unicode="&#xe604;" 
d="M1024 448q0 25 -3 50t-9 49q-5 25 -13 49t-18 46q-10 23 -22 45t-26 42q-14 21 -30.5 39.5t-34.5 35.5q-17 18 -36.5 33t-40.5 28q-21 14 -43 25t-45 20q-22 9 -46 15.5t-48 11.5q-24 4 -48.5 6t-48.5 1q-24 0 -48.5 -3t-47.5 -8q-24 -6 -47 -13.5t-45 -16.5
q-22 -10 -43.5 -22t-40.5 -26q-20 -13 -38 -29t-35 -33t-31.5 -36t-27.5 -39t-24 -41.5t-19 -43.5q-9 -22 -15.5 -45t-10.5 -46t-6 -46.5t-1 -47.5q0 -24 3 -47t8 -46t12.5 -45.5t16.5 -43.5q10 -22 21.5 -42t24.5 -39t28.5 -37t31.5 -34q17 -16 35 -30t38 -27
q19 -12 39.5 -22.5t42.5 -18.5q21 -9 43.5 -15t44.5 -10q23 -4 45.5 -6t45.5 -1q23 0 45.5 3t44.5 8t43.5 12t42.5 16t40.5 20t37.5 24q19 13 36 27.5t32 31.5q16 16 30 33.5t26 36.5t22 38.5t18 40.5q5 13 9 25.5t7 25.5t5.5 26.5t4.5 26.5h2h2q13 0 25 5t20 13
q9 9 14 20.5t5 25.5v2.5v2.5v0v0zM922 278q-8 -20 -19 -39t-23 -37q-13 -17 -27 -33.5t-30 -31.5q-15 -15 -32.5 -28.5t-35.5 -24.5q-18 -12 -37 -21.5t-39 -17.5t-40.5 -13.5t-41.5 -9.5q-21 -3 -42.5 -5t-42.5 -1q-21 0 -42 3t-42 7q-21 5 -41 11.5t-39 14.5
q-19 9 -37.5 19.5t-35.5 22.5t-32.5 25.5t-30.5 28.5q-14 15 -27 31.5t-24 34.5q-11 17 -20.5 35.5t-16.5 37.5q-8 19 -13.5 39t-8.5 40q-4 21 -5.5 41.5t-0.5 40.5q0 20 2.5 40.5t7.5 40.5q4 20 10.5 39t14.5 38q8 18 18 35.5t22 34.5q12 16 25 31.5t27 29.5
q15 13 30.5 25.5t32.5 23.5q16 10 34.5 19t35.5 16q20 8 38.5 13t39.5 8q18 4 38 5.5t39 0.5q21 0 40 -2.5t39 -7.5q18 -4 37 -10t36 -14q18 -8 34.5 -17.5t33.5 -20.5q15 -12 30 -24.5t27 -26.5q14 -14 25.5 -29t22.5 -31q10 -17 19 -34t15 -35q7 -17 11.5 -35.5t9.5 -37.5
q2 -18 4 -37t0 -38h1q-1 -1 -0.5 -2.5t-0.5 -2.5q1 -13 5 -24t13 -19q6 -9 17 -14.5t22 -6.5q-1 -13 -4.5 -26t-6.5 -25q-5 -13 -9 -25.5t-11 -24.5h1z" />
    <glyph glyph-name="uniE605" unicode="&#xe605;" 
d="M192 448v9.5t1 8.5q0 5 0.5 9.5t0.5 8.5l-185 60q-2 -12 -4 -23.5t-3 -23.5t-1.5 -24.5t-0.5 -24.5q0 -55 11.5 -107t32.5 -100q21 -47 50.5 -89t67.5 -77l114 157q-20 21 -35.5 46t-26.5 52q-10 27 -16 57t-6 61v0zM832 448q0 -31 -6 -61t-16 -57q-11 -27 -26.5 -52
t-35.5 -46l114 -157q38 35 67.5 77t50.5 89q21 48 32.5 100t11.5 107q0 12 -0.5 24.5t-1.5 24.5t-3 23.5t-4 23.5l-185 -60q0 -4 0.5 -8.5t0.5 -9.5q1 -4 1 -8.5v-9.5v0zM576 762q34 -7 65.5 -21.5t59.5 -34.5q27 -20 50 -45.5t39 -54.5l185 60q-27 58 -68 107.5t-92 87.5
q-52 38 -112.5 62.5t-126.5 32.5v-194v0zM234 606q16 29 39 54.5t50 45.5q28 20 59.5 34.5t65.5 21.5v194q-66 -8 -126.5 -32.5t-112.5 -62.5q-51 -38 -92 -87.5t-68 -107.5l185 -60v0zM645 157q-16 -7 -32 -12.5t-32 -9.5q-17 -3 -34 -5t-35 -2t-35 2t-34 5q-16 4 -32 9.5
t-32 12.5l-114 -158q28 -15 57 -26.5t60 -19.5q31 -9 63.5 -13t66.5 -4t66.5 4t63.5 13q31 8 60 19.5t57 26.5l-114 158v0z" />
    <glyph glyph-name="uniE606" unicode="&#xe606;" 
d="M512 960q-106 0 -199.5 -40t-162.5 -110q-70 -69 -110 -162.5t-40 -199.5t40 -199.5t110 -162.5q69 -70 162.5 -110t199.5 -40t199.5 40t162.5 110q70 69 110 162.5t40 199.5t-40 199.5t-110 162.5q-69 70 -162.5 110t-199.5 40v0zM512 704q53 0 99.5 -20t81.5 -55
t55 -81.5t20 -99.5t-20 -99.5t-55 -81.5t-81.5 -55t-99.5 -20t-99.5 20t-81.5 55t-55 81.5t-20 99.5t20 99.5t55 81.5t81.5 55t99.5 20v0zM817 143q-30 -31 -65.5 -54.5t-74.5 -39.5q-38 -16 -80 -24.5t-85 -8.5t-85 8.5t-80 24.5q-39 16 -74.5 39.5t-65.5 54.5
q-31 30 -54.5 65.5t-39.5 74.5q-16 38 -24.5 80t-8.5 85t8.5 85t24.5 80q16 39 39.5 74.5t54.5 65.5l67 -67v0v0q-49 -50 -73.5 -111.5t-24.5 -126.5t24.5 -126.5t73.5 -111.5q24 -23 51.5 -41.5t57.5 -31.5q31 -12 63 -18.5t66 -6.5t66 6.5t63 18.5q30 13 57.5 31.5
t51.5 41.5q49 50 73.5 111.5t24.5 126.5t-24.5 126.5t-73.5 111.5l67 67q31 -30 54.5 -65.5t39.5 -74.5q16 -38 24.5 -80t8.5 -85t-8.5 -85t-24.5 -80q-16 -39 -39.5 -74.5t-54.5 -65.5v0z" />
    <glyph glyph-name="uniE607" unicode="&#xe607;" 
d="M512 960q-105 0 -197 -39t-161 -107t-110 -159t-44 -195q2 91 35.5 170.5t90.5 138.5q56 59 130.5 93t159.5 34q86 0 162 -35t132 -96q57 -61 89.5 -142.5t32.5 -174.5q0 -20 7.5 -37.5t20.5 -30.5t30.5 -20.5t37.5 -7.5t37.5 7.5t30.5 20.5t20.5 30.5t7.5 37.5
q0 106 -40 199.5t-110 162.5q-69 70 -162.5 110t-199.5 40v0zM512 -64q105 0 197 39t161 107t110 159t44 195q-2 -91 -35.5 -170.5t-90.5 -138.5q-56 -59 -130.5 -93t-159.5 -34q-86 0 -162 35t-132 96q-57 61 -89.5 142.5t-32.5 174.5q0 20 -7.5 37.5t-20.5 30.5
t-30.5 20.5t-37.5 7.5t-37.5 -7.5t-30.5 -20.5t-20.5 -30.5t-7.5 -37.5q0 -106 40 -199.5t110 -162.5q69 -70 162.5 -110t199.5 -40v0z" />
    <glyph glyph-name="uniE608" unicode="&#xe608;" 
d="M1024 576h-384l144 144q-28 27 -59 48t-66 35q-34 14 -71.5 21.5t-75.5 7.5t-75.5 -7.5t-71.5 -21.5q-35 -14 -66 -35t-59 -48q-27 -28 -48 -59t-35 -66q-14 -34 -21.5 -71.5t-7.5 -75.5t7.5 -75.5t21.5 -71.5q14 -35 35 -66t48 -59q28 -27 59 -48t66 -35
q34 -14 71.5 -21.5t75.5 -7.5t75.5 7.5t71.5 21.5q35 14 66 35t59 48q4 5 8.5 9.5t8.5 9.5l96 -84q-35 -40 -78 -72.5t-92 -55.5q-49 -22 -103 -34.5t-112 -12.5q-106 0 -199.5 40t-162.5 110q-70 69 -110 162.5t-40 199.5t40 199.5t110 162.5q69 70 162.5 110t199.5 40
q53 0 103 -10.5t96 -29.5q46 -20 87 -47.5t76 -62.5l150 150v-384v0z" />
    <glyph glyph-name="uniE609" unicode="&#xe609;" 
d="M853 960h-683q-35 0 -66.5 -13.5t-53.5 -36.5q-24 -23 -37 -54t-14 -67l1 -682q-1 -36 13 -67t36 -54q24 -23 54.5 -36.5t67.5 -13.5h681q37 0 67.5 13.5t54.5 36.5q22 23 36 54t13 67l1 682q-1 36 -14 67t-37 54q-22 23 -53.5 36.5t-66.5 13.5v0zM837 618q1 -5 1 -10.5
t1 -11.5q-1 -85 -32 -171.5t-93 -156.5q-59 -70 -149 -114.5t-205 -44.5q-37 0 -70.5 5t-67.5 15q-31 10 -62 24.5t-58 32.5q4 -1 9.5 -1.5t9.5 -0.5q6 0 10.5 -0.5t10.5 -0.5q29 0 57.5 5t54.5 15q27 9 50.5 23t46.5 31q-29 0 -53.5 9t-45.5 25q-20 16 -35.5 37.5
t-22.5 47.5q7 -2 15 -2.5t16 -0.5h11.5t11.5 1q5 1 11 2t10 3q-28 5 -53 20.5t-42 37.5q-20 23 -29.5 50.5t-10.5 58.5q1 1 0.5 1.5t0.5 1.5q7 -5 17 -9t18 -7q11 -2 20.5 -3.5t20.5 -2.5q-18 12 -31 27t-24 34q-9 18 -15 38.5t-5 43.5q-1 11 1 22.5t4 22.5q4 11 8 21t10 20
q30 -39 69 -71t82 -55q45 -23 93.5 -36.5t102.5 -16.5q-2 5 -2.5 9.5t-1.5 9.5q0 5 -1 10t0 10q-1 35 13 66.5t36 54.5q24 23 54 36.5t66 13.5q17 0 34.5 -3.5t32.5 -11.5q16 -7 29.5 -17t26.5 -22q13 3 27.5 7t26.5 9q14 6 26.5 12t25.5 14q-5 -15 -12 -29t-17 -26
q-9 -12 -21 -22t-24 -18q12 1 25 3.5t24 6.5q13 3 24.5 7.5t23.5 9.5q-9 -13 -18.5 -25t-20.5 -23q-10 -11 -22 -21.5t-23 -19.5h-1z" />
    <glyph glyph-name="uniE60A" unicode="&#xe60a;" 
d="M1024 766q-14 -6 -28.5 -11.5t-30.5 -8.5q-15 -5 -30.5 -8t-31.5 -5q17 10 31 22t26 28q12 14 21 31t15 35q-16 -8 -32 -16.5t-32 -13.5q-17 -8 -34.5 -12.5t-35.5 -8.5q-14 16 -31.5 28t-36.5 21q-20 8 -41 13t-44 4q-44 1 -82 -16t-67 -44q-28 -30 -44.5 -67.5
t-16.5 -82.5q0 -5 0.5 -11.5t0.5 -11.5q1 -7 2 -12.5t2 -12.5q-65 4 -126.5 20.5t-116.5 46.5q-55 27 -103 66.5t-87 86.5q-6 -11 -11.5 -24t-9.5 -25q-3 -15 -5 -28.5t-2 -28.5q0 -26 6.5 -52t18.5 -48q13 -23 30 -41.5t38 -33.5q-13 2 -25.5 3t-24.5 6q-12 2 -23 7.5
t-22 9.5q0 1 0 -0.5t0 -0.5q0 -39 13 -73t35 -62q23 -26 54 -45.5t67 -25.5q-7 -3 -14 -4t-13 -3q-7 0 -14.5 -1t-14.5 0q-5 -1 -10 0t-10 0q-5 2 -9.5 2t-9.5 2q10 -32 29 -58t44 -46q26 -19 57.5 -30.5t65.5 -11.5q-27 -22 -57.5 -38t-62.5 -29q-33 -10 -68.5 -17
t-72.5 -6q-6 -1 -12.5 0t-12.5 0q-6 1 -12.5 1.5t-12.5 1.5q35 -23 73 -40t78 -30q41 -11 84 -18t87 -6q145 -1 256.5 54t187.5 140q76 87 115 193t39 211q0 5 -0.5 12.5t-0.5 13.5q16 12 30 24t27 27q14 12 25.5 27.5t22.5 30.5v0z" />
    <glyph glyph-name="uniE60B" unicode="&#xe60b;" 
d="M853 960h-683q-35 0 -66.5 -13.5t-53.5 -36.5q-24 -23 -37 -54t-14 -67l1 -682q-1 -36 13 -67t36 -54q24 -23 54.5 -36.5t67.5 -13.5h681q37 0 67.5 13.5t54.5 36.5q22 23 36 54t13 67l1 682q-1 36 -14 67t-37 54q-22 23 -53.5 36.5t-66.5 13.5v0zM870 448h-166l-1 -448
h-191l-1 448h-92l-1 147h94l-1 95q1 48 11.5 86.5t36.5 64.5q24 27 64 41t96 14h176l-1 -159h-142q-17 0 -26 -4t-15 -12q-4 -8 -6 -20t-1 -27l-1 -79h193l-26 -147v0z" />
    <glyph glyph-name="uniE60C" unicode="&#xe60c;" 
d="M576 -64h-192v512h-128v176l128 1v103q0 54 8.5 97t32.5 73q23 30 63.5 46t103.5 16h142v-176h-89q-24 0 -38 -5t-21 -14t-8.5 -22t-1.5 -30v-88h159l-19 -177h-140v-512v0z" />
    <glyph glyph-name="uniE60D" unicode="&#xe60d;" 
d="M559 896h-109h-159q-45 0 -87 -16t-75 -43q-32 -27 -51.5 -62.5t-19.5 -74.5q0 -41 14.5 -76.5t41.5 -61.5q27 -27 64.5 -42t83.5 -15h12.5t12.5 1q-3 -6 -5.5 -12t-4.5 -12q-2 -7 -3 -13.5t-1 -12.5q0 -12 3 -22t8 -19t11.5 -17.5t14.5 -15.5q-6 0 -11.5 -0.5
t-11.5 -0.5h-12h-12q-55 0 -103.5 -16.5t-83.5 -43.5q-36 -26 -56 -61t-20 -72q0 -36 22 -65t59 -50q38 -20 88 -31t105 -11q64 0 113 16.5t83 43.5q33 27 50.5 62t17.5 71q0 29 -5 53t-16 44q-11 21 -28.5 39.5t-44.5 37.5q-9 6 -21 16.5t-23 22.5t-19 23.5t-8 20.5
q0 11 2 19.5t8 17.5q6 8 16 17.5t26 22.5t30 28.5t24 33.5q10 17 16 37t6 41q0 25 -6 49.5t-17 44.5q-10 21 -26.5 37t-37.5 24h85l60 43v0zM465 241q2 -7 3 -14t1 -14q0 -29 -10.5 -54.5t-33.5 -44.5t-60 -29.5t-91 -10.5q-39 0 -71.5 11t-55.5 31q-24 19 -37 45.5
t-13 55.5t16 54.5t43 44.5t62 30t74 10q9 0 17.5 -0.5t16.5 -2.5q9 -1 17 -3t15 -4q21 -15 39 -27t32 -24q13 -12 22.5 -25t13.5 -29v0zM301 532q-26 1 -50.5 14.5t-44.5 36.5t-33.5 53t-18.5 64q-4 34 2 63.5t20 50.5t35 33t47 11t50 -14t44 -35q20 -23 34 -52.5t18 -63.5
q5 -34 -1 -64t-20 -51q-14 -22 -35 -34.5t-47 -11.5v0zM832 704v192h-64v-192h-192v-64h192v-192h64v192h192v64h-192z" />
    <glyph glyph-name="uniE60E" unicode="&#xe60e;" 
d="M512 960q106 0 199.5 -40t162.5 -110q70 -69 110 -162.5t40 -199.5q0 -98 -34.5 -185t-94.5 -155q-61 -68 -142.5 -112t-176.5 -56v380h176l16 128h-192v64q0 13 5 25t14 20q8 9 20 14t25 5h128v128h-128q-40 0 -75 -15t-61 -41t-41 -61t-15 -75v-64h-96v-128h96v-380
q-95 12 -176.5 56t-142.5 112q-60 68 -94.5 155t-34.5 185q0 106 40 199.5t110 162.5q69 70 162.5 110t199.5 40v0z" />
    <glyph glyph-name="uniE60F" unicode="&#xe60f;" 
d="M512 960q-106 0 -199.5 -40t-162.5 -110q-70 -69 -110 -162.5t-40 -199.5t40 -199.5t110 -162.5q69 -70 162.5 -110t199.5 -40t199.5 40t162.5 110q70 69 110 162.5t40 199.5t-40 199.5t-110 162.5q-69 70 -162.5 110t-199.5 40v0zM806 599q0 -5 0.5 -10t0.5 -10
q0 -75 -28.5 -152t-83.5 -139q-54 -62 -135 -101.5t-185 -39.5q-32 0 -63 5t-61 13q-29 9 -56.5 21.5t-52.5 29.5q4 -1 8.5 -1.5t9.5 -0.5q4 0 9 -0.5t9 -0.5q27 0 52.5 4.5t49.5 13.5q23 8 45 20t42 27q-25 1 -47.5 9t-41.5 22q-18 14 -32 33t-21 42q7 -2 14 -2.5t15 -0.5
q5 0 10 0.5t10 0.5l10 2l10 2q-27 6 -49 19.5t-38 33.5q-17 19 -26 44t-9 52v1.5v0.5q7 -4 15.5 -7.5t16.5 -5.5q9 -3 18 -4l18 -2q-15 10 -27.5 24t-21.5 30q-8 16 -13 34.5t-5 38.5q0 10 1.5 20t3.5 20q3 9 7 18.5t9 17.5q28 -35 62.5 -63t74.5 -48q40 -21 84 -33t91 -15
q-1 4 -1.5 8.5t-0.5 8.5q-1 5 -1 9v9q0 31 11.5 59t32.5 48q21 21 48.5 33t58.5 12q17 0 32.5 -3.5t29.5 -9.5t26.5 -15t22.5 -20q13 2 25.5 6t24.5 8q12 5 24 10.5t23 12.5q-5 -14 -11.5 -26t-14.5 -23q-9 -10 -19 -19t-22 -16q11 1 22.5 3t22.5 5t21.5 7t20.5 9
q-8 -12 -16.5 -22.5t-17.5 -20.5q-10 -10 -20.5 -19t-21.5 -17v0z" />
    <glyph glyph-name="uniE610" unicode="&#xe610;" 
d="M136 209q-28 0 -53 -10.5t-43 -29.5q-19 -18 -29.5 -43t-10.5 -53t10.5 -53t29.5 -43q18 -19 43 -29.5t53 -10.5q29 0 53.5 10.5t43.5 29.5q18 18 29 43t11 53t-11 53t-29 43q-19 19 -43.5 29.5t-53.5 10.5v0zM0 612v-196q48 0 94 -9.5t89 -26.5q43 -18 82.5 -44.5
t73.5 -60.5t60 -73t44 -82q17 -43 26.5 -89.5t9.5 -94.5h197q0 140 -53 263t-145 215t-215 145t-263 53v0zM0 960v-196q171 0 321.5 -65.5t263.5 -177.5q112 -112 177 -263t65 -322h197q0 212 -80.5 398.5t-219.5 325.5t-325.5 219.5t-398.5 80.5v0z" />
    <glyph glyph-name="uniE611" unicode="&#xe611;" 
d="M853 960h-683q-35 0 -66.5 -13.5t-53.5 -36.5q-24 -23 -37 -54t-14 -67l1 -682q-1 -36 13 -67t36 -54q24 -23 54.5 -36.5t67.5 -13.5h681q37 0 67.5 13.5t54.5 36.5q22 23 36 54t13 67l1 682q-1 36 -14 67t-37 54q-22 23 -53.5 36.5t-66.5 13.5v0zM278 129
q-17 0 -33.5 6.5t-27.5 18.5q-12 12 -18.5 27.5t-7.5 33.5q1 18 7.5 34t18.5 28q11 11 27.5 18t33.5 7q19 0 34.5 -7t28.5 -18q10 -12 17.5 -28t6.5 -34q1 -18 -6.5 -33.5t-17.5 -27.5q-13 -12 -28.5 -18.5t-34.5 -6.5v0zM497 128q-1 31 -6 60.5t-18 56.5q-10 28 -27 53
t-38 46q-23 22 -47.5 39t-52.5 28q-26 11 -56 17t-60 6l-1 125q90 0 168 -34t138 -92q57 -59 91.5 -137.5t33.5 -167.5h-125v0zM719 128q1 109 -41 205t-113 168q-73 72 -168.5 113.5t-205.5 41.5l1 125q134 0 253.5 -51.5t207.5 -139.5q89 -89 140 -208t52 -254h-126v0z
" />
    <glyph glyph-name="uniE612" unicode="&#xe612;" 
d="M512 960q-106 0 -199.5 -40t-162.5 -110q-70 -69 -110 -162.5t-40 -199.5t40 -199.5t110 -162.5q69 -70 162.5 -110t199.5 -40t199.5 40t162.5 110q70 69 110 162.5t40 199.5t-40 199.5t-110 162.5q-69 70 -162.5 110t-199.5 40v0zM320 192q-13 0 -25 5t-20 14
q-9 8 -14 20t-5 25t5 25t14 20q8 9 20 14t25 5t25 -5t20 -14q9 -8 14 -20t5 -25t-5 -25t-14 -20q-8 -9 -20 -14t-25 -5v0zM496 192q0 50 -19 93.5t-51 76.5q-33 32 -76.5 51t-93.5 19v96q69 0 130.5 -26.5t106.5 -72.5q46 -45 72.5 -106.5t26.5 -130.5h-96v0zM688 192
q0 43 -8.5 85t-24.5 80q-16 39 -39.5 74.5t-54.5 65.5q-30 31 -65.5 54.5t-74.5 39.5q-38 16 -80 24.5t-85 8.5v96q53 0 104 -10t98 -30q48 -20 91 -48.5t80 -66.5q38 -37 66.5 -80t48.5 -91q20 -47 30 -98t10 -104h-96v0z" />
    <glyph glyph-name="uniE613" unicode="&#xe613;" 
d="M832 832h-640q-40 0 -74.5 -15t-61.5 -41q-26 -26 -41 -61t-15 -75v-384q0 -40 15 -74.5t41 -61.5q26 -26 61 -41t74 -15h641q39 0 74 15t61 41t41 61t15 74v385q0 39 -15 74t-41 61t-61 41t-75 15zM959 255q0 -13 -2.5 -25t-7.5 -24q-5 -11 -12 -21.5t-16 -19.5
t-19.5 -16t-21.5 -12q-12 -5 -24 -7.5t-25 -2.5h-640q-13 0 -25 2.5t-24 7.5q-11 5 -21.5 12t-19.5 16t-16 19.5t-12 21.5q-5 12 -7.5 24t-2.5 25v384q0 13 2.5 25t7.5 24q5 11 12 21.5t16 19.5t19.5 16t21.5 12q12 5 24 7.5t25 2.5h640q13 0 25 -2.5t24 -7.5
q11 -5 21.5 -12t19.5 -16t16 -19.5t12 -21.5q5 -12 7.5 -24t2.5 -25v-384v0zM383 191l320 256l-320 256v-512z" />
    <glyph glyph-name="uniE614" unicode="&#xe614;" 
d="M832 832h-640q-40 0 -74.5 -15t-61.5 -41q-26 -26 -41 -61t-15 -75v-384q0 -40 15 -74.5t41 -61.5q26 -26 61 -41t74 -15h641q39 0 74 15t61 41t41 61t15 74v385q0 39 -15 74t-41 61t-61 41t-75 15zM383 191v512l320 -256l-320 -256v0z" />
    <glyph glyph-name="uniE615" unicode="&#xe615;" 
d="M854 960h-684q-36 0 -66.5 -13.5t-54.5 -37.5q-22 -23 -35.5 -54.5t-12.5 -66.5l-1 -680q1 -36 13.5 -67.5t36.5 -54.5q22 -23 53.5 -36.5t65.5 -13.5h686q34 0 65.5 13.5t53.5 36.5q24 23 37 54.5t14 67.5l-1 680q1 35 -13 66.5t-36 54.5q-24 24 -54.5 37.5t-66.5 13.5
v0zM705 928l-1 -160h-159l-1 160h161v0zM480 928l1 -160h-161l1 160h159v0zM33 768l-1 20q1 29 11.5 54.5t29.5 44.5q18 19 43.5 30t52.5 11h88l-1 -160h-223v0zM768 320h-191l-1 -192h-127l-1 192h-191l-1 128h193l-1 192h129l-1 -192h193l-1 -128v0zM993 768h-225l1 160
h85q29 0 54 -11t44 -30q18 -19 29.5 -44.5t10.5 -54.5l1 -20v0z" />
    <glyph glyph-name="uniE616" unicode="&#xe616;" 
d="M790 896h-109h-159q-45 0 -87.5 -16t-74.5 -43t-52 -62.5t-20 -74.5q0 -41 15 -76.5t42 -61.5q26 -27 64 -42t84 -15h12t12 1q-3 -6 -5.5 -12t-3.5 -12q-2 -7 -3 -13.5t-1 -12.5q0 -12 2.5 -22t7.5 -19t12 -17.5t14 -15.5q-6 0 -11.5 -0.5t-11.5 -0.5h-11h-12
q-56 0 -104 -16.5t-84 -43.5q-35 -26 -55.5 -61t-20.5 -72q0 -36 22 -65t60 -50q37 -20 87 -31t106 -11q63 0 112.5 16.5t82.5 43.5q34 27 51 62t17 71q0 29 -4.5 53t-15.5 44q-11 21 -29 39.5t-45 37.5q-9 6 -21 16.5t-23 22.5t-18.5 23.5t-7.5 20.5q0 11 2 19.5t7 17.5
q6 8 16 17.5t26 22.5q17 13 31 28.5t24 33.5q10 17 15.5 37t5.5 41q0 25 -5.5 49.5t-16.5 44.5q-11 21 -27 37t-37 24h85l60 43v0zM696 241q2 -7 2.5 -14t0.5 -14q0 -29 -10 -54.5t-33 -44.5t-60.5 -29.5t-91.5 -10.5q-38 0 -70.5 11t-56.5 31q-23 19 -36.5 45.5t-13.5 55.5
t16 54.5t43 44.5t62.5 30t73.5 10q9 0 17.5 -0.5t17.5 -2.5q8 -1 16 -3l16 -4q21 -15 38.5 -27t31.5 -24t23.5 -25t13.5 -29v0zM531 532q-26 1 -50.5 14.5t-43.5 36.5q-20 23 -34 53t-18 64q-5 34 1 63.5t20 50.5t35 33t47 11t50.5 -14t44.5 -35q20 -23 33.5 -52.5
t18.5 -63.5q4 -34 -2 -64t-20 -51q-14 -22 -35 -34.5t-47 -11.5v0z" />
    <glyph glyph-name="uniE617" unicode="&#xe617;" 
d="M437 142q0 -28 -9.5 -52.5t-30.5 -43.5t-54.5 -30.5t-83.5 -12.5q-29 16 -55 36t-50 43t-44.5 49t-37.5 55q9 21 27 40t42 33t53 21.5t61 7.5q9 0 17.5 -1t16.5 -2q9 -2 17 -4t15 -4q21 -15 40 -27t33 -25q15 -12 25 -25.5t15 -30.5q1 -6 2 -13t1 -14v0zM512 960
q-55 0 -107.5 -11.5t-100.5 -32.5q-47 -21 -89.5 -51t-77.5 -68q14 8 29 14t31 10t33 6.5t34 2.5h154h103l-58 -61h-67q18 -10 31.5 -25t22.5 -34t14 -40.5t5 -45.5q0 -21 -5.5 -40t-15.5 -36q-10 -18 -24 -33t-31 -28q-16 -12 -26 -21.5t-16 -18.5q-6 -8 -7.5 -17t-1.5 -19
t8 -21t20 -21q12 -11 25 -21t22 -16q31 -24 50.5 -44t30.5 -40t15 -43t4 -52q0 -30 -13 -58.5t-36 -53.5q-24 -24 -58.5 -43t-78.5 -29q21 -8 43 -14t45 -10q22 -5 45.5 -7t47.5 -2q106 0 199.5 40t162.5 110q70 69 110 162.5t40 199.5t-40 199.5t-110 162.5
q-69 70 -162.5 110t-199.5 40v0zM768 576v-128h-64v128h-128v64h128v128h64v-128h128v-64h-128v0zM366 621q4 -35 -1 -62.5t-17 -46.5q-13 -19 -33 -29t-46 -10q-26 1 -50.5 13t-44.5 32q-20 21 -33.5 49.5t-18.5 62.5q-4 34 1.5 63t19.5 51q15 21 36 33t47 11t49 -14.5
t42 -36.5q19 -22 31.5 -52t17.5 -64v0zM221 318q-28 0 -54 -4.5t-49 -13.5q-23 -8 -43 -20t-37 -26q-9 23 -16 46t-12 48q-5 24 -7.5 49t-2.5 51q0 21 1.5 42t5.5 41q3 21 8 40.5t11 38.5q3 -37 17.5 -69t38.5 -56q25 -24 59.5 -37.5t77.5 -13.5q7 0 13 0.5t12 0.5
q-3 -5 -5.5 -11.5t-4.5 -12.5q-1 -6 -2 -12.5t-1 -13.5q0 -11 2.5 -20t7.5 -17t12 -15t14 -15h-11h-12h-11h-12v0z" />
    <glyph glyph-name="uniE618" unicode="&#xe618;" 
d="M1 90q0 2 -0.5 4t-0.5 4q0 -2 0.5 -4t0.5 -4v0zM236 395q34 -1 62.5 15t46.5 45q19 29 27 68.5t2 84.5t-24.5 84.5t-44.5 69.5q-27 30 -59.5 47.5t-67.5 18.5q-34 1 -62 -14.5t-47 -44.5q-19 -28 -26.5 -67t-1.5 -84q5 -45 23.5 -85t45.5 -71q26 -30 58.5 -48t67.5 -19v0
zM1024 704v85q0 36 -13.5 67t-36.5 54t-54 36.5t-67 13.5h-682q-35 0 -65.5 -13t-53.5 -36q-23 -22 -37 -52.5t-15 -64.5q22 19 48 36.5t54 30.5q29 12 59.5 19.5t61.5 7.5h212h145l-80 -67h-113q28 -11 49.5 -32t36.5 -48q14 -28 21.5 -60t7.5 -66q0 -28 -7.5 -54
t-20.5 -50q-13 -23 -32 -44t-41 -38q-21 -17 -34.5 -29.5t-21.5 -23.5q-7 -12 -9.5 -23t-2.5 -26q0 -12 10 -27.5t25 -31.5q14 -15 30.5 -29t28.5 -23q35 -25 59 -49.5t39 -52.5q14 -27 20.5 -58.5t6.5 -70.5q0 -6 -0.5 -12.5t-1.5 -12.5l-2 -12l-2 -12h307q36 0 67 13.5
t54 36.5t36.5 54t13.5 67v533h-192v-192h-64v192h-192v64h192v192h64v-192h192v0zM186 194h16h15q8 0 15.5 0.5t15.5 0.5q-10 10 -19 21t-16 23q-6 12 -10 25.5t-4 28.5q0 9 1.5 17.5t3.5 17.5l6 16t7 16q-4 -1 -8 -1h-8h-8.5h-8.5q-28 0 -53.5 4t-48.5 13q-23 8 -43.5 19.5
t-38.5 26.5v-67v-202q20 10 42 17.5t45 12.5q23 6 48 8.5t51 2.5v0zM3 73q0 4 -1 8t-1 8q0 -4 1 -8t1 -8v0zM455 7q-5 22 -17.5 39.5t-31.5 33.5q-18 15 -42 31t-51 36q-11 3 -21.5 5.5t-21.5 4.5t-22.5 3t-23.5 1q-34 0 -66 -6t-60 -18q-29 -12 -53 -28t-42 -36
q6 -30 21.5 -55t37.5 -43t50 -28.5t59 -10.5h286q1 4 1.5 8.5t0.5 8.5t0.5 8.5t0.5 8.5q0 5 -0.5 9.5t-0.5 9.5q-1 5 -1.5 9.5t-2.5 8.5v0z" />
    <glyph glyph-name="uniE619" unicode="&#xe619;" 
d="M459 300l-171 -296h565l170 295zM976 383l-294 507h-341l292 -508zM293 805l-294 -507l172 -295l292 507z" />
    <glyph glyph-name="uniE61A" unicode="&#xe61a;" 
d="M496 960q-103 0 -193 -39t-158 -106q-67 -68 -106 -158t-39 -193t39 -193t106 -158q68 -67 158 -106t193 -39t193 39t158 106q67 68 106 158t39 193t-39 193t-106 158q-68 67 -158 106t-193 39v0zM927 480h-192q0 27 -3 52.5t-7 51.5q-5 25 -11.5 49t-14.5 48
q16 6 31.5 14t30.5 17t29 18.5t28 20.5q24 -27 43.5 -58.5t34.5 -65.5q14 -34 22 -71t9 -76v0zM478 33q-20 17 -38 36t-35 40q-16 21 -30.5 44t-26.5 48q16 5 32 9t32 7l34 4t34 2v-190h-0.5h-1.5v0zM514 895q22 -19 42.5 -41t38.5 -46q18 -25 33.5 -52t28.5 -57
q-18 -6 -35.5 -10.5t-35.5 -7.5q-18 -4 -36.5 -6t-37.5 -2v222h0.5h1.5v0zM567 890q33 -6 64.5 -16.5t60.5 -24.5q28 -15 54.5 -34t49.5 -41q-12 -10 -25.5 -18.5t-26.5 -16.5q-14 -8 -28.5 -15.5t-29.5 -13.5q-10 26 -23.5 50.5t-28.5 46.5q-15 23 -31.5 43.5t-35.5 39.5v0
zM480 895v-222q-19 0 -37.5 2t-36.5 6q-18 3 -35.5 7.5t-35.5 10.5q13 30 28.5 57t33.5 52q18 24 38.5 46t42.5 41h1.5h0.5v0zM305 710q-14 6 -28.5 13.5t-28.5 15.5q-13 8 -26.5 16.5t-25.5 18.5q23 22 49.5 41t54.5 34q29 14 60.5 24.5t64.5 16.5q-19 -19 -35.5 -39.5
t-31.5 -43.5q-15 -22 -28.5 -46.5t-24.5 -50.5v0zM323 670q19 -7 38 -12t39 -9q19 -3 39 -5.5t41 -2.5v-161h-191q0 25 2.5 49.5t7.5 48.5q4 24 10 47t14 45v0zM480 448v-193q-19 0 -37.5 -2t-36.5 -5t-36 -7.5t-35 -9.5q-11 24 -19 50.5t-14 53.5t-9.5 55.5t-3.5 57.5h191
v0zM425 38q-30 5 -58 14t-54 21q-27 13 -51 28.5t-46 34.5q11 8 23.5 15.5t25.5 14.5t26 13t27 11q10 -21 22 -41.5t26 -39.5q13 -19 28 -37t31 -34v0zM512 33v190q17 0 34 -2l34 -4q16 -3 32 -7t32 -9q-12 -25 -26.5 -48t-30.5 -44q-17 -21 -35 -40.5t-38 -35.5h-1.5h-0.5
v0zM674 190q14 -5 27 -11t26 -13t25.5 -14.5t23.5 -15.5q-22 -19 -46 -34.5t-51 -28.5q-26 -12 -54 -21t-58 -14q16 16 31 34t28 37q14 19 26 39.5t22 41.5v0zM657 231q-17 5 -35 9.5t-36 7.5t-36.5 5t-37.5 2v193h191q0 -29 -3.5 -57.5t-9.5 -55.5t-14 -53.5t-19 -50.5v0z
M512 480v161q21 0 41 2.5t39 5.5q20 4 39 9t38 12q8 -22 14 -45t10 -47q5 -24 7.5 -48.5t2.5 -49.5h-191v0zM174 751q14 -11 28 -20.5t29 -18.5t30.5 -17t31.5 -14q-8 -24 -14.5 -48t-11.5 -49q-4 -26 -7 -51.5t-3 -52.5h-192q1 39 9 76t22 71q15 34 34.5 65.5t43.5 58.5v0z
M65 448h192q0 -31 3.5 -60.5t10.5 -58.5q6 -28 14.5 -55.5t19.5 -53.5q-15 -6 -30 -13t-29 -15t-27.5 -16.5t-26.5 -17.5q-29 28 -51.5 61t-38.5 70q-17 36 -26.5 76.5t-10.5 82.5v0zM800 158q-13 9 -26.5 17.5t-27.5 16.5t-29 15t-30 13q11 26 19.5 53.5t14.5 55.5
q7 29 10.5 58.5t3.5 60.5h192q-1 -42 -10.5 -82.5t-26.5 -76.5q-16 -37 -38.5 -70t-51.5 -61v0z" />
    <glyph glyph-name="uniE61B" unicode="&#xe61b;" 
d="M640 704v256h-448l-192 -192v-576h384v-256h640v768h-384v0zM192 869v-101h-101l101 101v0zM64 256v448h192v192h320v-192l-192 -192v-256h-320v0zM576 613v-101h-101l101 101v0zM960 0h-512v448h192v192h320v-640v0z" />
    <glyph glyph-name="uniE61C" unicode="&#xe61c;" 
d="M978 766q-13 4 -25.5 2t-23.5 -7q-11 -7 -19 -16.5t-12 -22.5l-5 -17l-597 -1l-8 73q-2 11 -7.5 21.5t-14.5 17.5q-8 8 -19 12t-23 5l-160 -1q-13 1 -25 -4.5t-20 -13.5q-9 -9 -14 -20.5t-5 -25.5q0 -12 5 -24.5t14 -19.5q8 -10 20 -14.5t25 -5.5l104 1l56 -457
q2 -11 7.5 -21.5t14.5 -17.5q8 -8 19 -12t23 -5l544 1q11 -1 20.5 3t18.5 9q8 7 14 15t9 19l128 447q3 14 1.5 26t-7.5 24q-6 10 -16 18.5t-22 11.5v0zM512 449v63l128 1v-65l-128 1v0zM640 384v-63l-128 -1v65l128 -1v0zM512 577v63l128 1v-65l-128 1v0zM304 640l144 1v-65
l-136 1l-8 63v0zM320 513l128 -1v-63l-120 -1l-8 65v0zM336 384l112 1v-65l-104 1l-8 63v0zM784 321l-80 -1v65l98 -1l-18 -63v0zM820 448l-116 1v63l135 1l-19 -65v0zM857 577l-153 -1v65l171 -1l-18 -63v0zM256 32q0 21 7.5 38t20.5 31q13 12 30.5 20t37.5 7q20 1 37.5 -7
t30.5 -20q13 -14 20.5 -31t7.5 -38q0 -19 -7.5 -37t-20.5 -30q-13 -14 -30.5 -21t-37.5 -8q-20 1 -37.5 8t-30.5 21q-13 12 -20.5 30t-7.5 37v0zM640 33q0 19 7.5 37t20.5 30q13 14 30.5 21t37.5 8q20 -1 37.5 -8t30.5 -21q13 -12 20.5 -30t7.5 -37q0 -21 -7.5 -38
t-20.5 -31q-13 -12 -30.5 -20t-37.5 -7q-20 -1 -37.5 7t-30.5 20q-13 14 -20.5 31t-7.5 38v0z" />
    <glyph glyph-name="uniE61D" unicode="&#xe61d;" 
d="M670 287l215 -124l-525 -141l-140 525l220 -128q87 145 86.5 244t-53.5 162q-53 62 -141.5 91t-176.5 30q151 35 289.5 0t223.5 -123q85 -91 96 -227.5t-94 -308.5v0z" />
    <glyph glyph-name="uniE61E" unicode="&#xe61e;" 
d="M918 873q-87 14 -178.5 1t-155.5 -66q-63 -52 -80.5 -150t43.5 -254l238 87l-229 -492l-492 229l233 85q-74 187 -39.5 320.5t133.5 206.5t242 83t285 -50v0z" />
    <glyph glyph-name="uniE61F" unicode="&#xe61f;" 
d="M592 512h-16v192q0 40 -15 75t-41 61t-61 41t-75 15h-128q-40 0 -75 -15t-61 -41t-41 -61t-15 -75v-192h-16q-10 0 -18.5 -4t-15.5 -10q-6 -7 -10 -15.5t-4 -18.5v-480q0 -10 4 -18.5t10 -15.5q7 -6 15.5 -10t18.5 -4h544q10 0 18.5 4t15.5 10q6 7 10 15.5t4 18.5v480
q0 10 -4 18.5t-10 15.5q-7 6 -15.5 10t-18.5 4v0zM384 64h-128l28 139q-6 5 -11.5 10.5t-8.5 12.5q-4 6 -6 14t-2 16q0 13 5 25t14 20q8 9 20 14t25 5t25 -5t20 -14q9 -8 14 -20t5 -25q0 -8 -2 -16t-6 -14q-3 -7 -8.5 -12.5t-11.5 -10.5l28 -139v0zM448 512h-256v192
q0 13 5 25t14 20q8 9 20 14t25 5h128q13 0 25 -5t20 -14q9 -8 14 -20t5 -25v-192v0z" />
    <glyph glyph-name="uniE620" unicode="&#xe620;" 
d="M768 896h-128q-40 0 -75 -15t-61 -41t-41 -61t-15 -75v-192h-400q-10 0 -18.5 -4t-15.5 -10q-6 -7 -10 -15.5t-4 -18.5v-480q0 -10 4 -18.5t10 -15.5q7 -6 15.5 -10t18.5 -4h544q10 0 18.5 4t15.5 10q6 7 10 15.5t4 18.5v480q0 10 -4 18.5t-10 15.5q-7 6 -15.5 10
t-18.5 4h-16v192q0 13 5 25t14 20q8 9 20 14t25 5h128q13 0 25 -5t20 -14q9 -8 14 -20t5 -25v-192h128v192q0 40 -15 75t-41 61t-61 41t-75 15v0zM384 64h-128l28 139q-6 5 -11.5 10.5t-8.5 12.5q-4 6 -6 14t-2 16q0 13 5 25t14 20q8 9 20 14t25 5t25 -5t20 -14q9 -8 14 -20
t5 -25q0 -8 -2 -16t-6 -14q-3 -7 -8.5 -12.5t-11.5 -10.5l28 -139v0z" />
    <glyph glyph-name="uniE621" unicode="&#xe621;" 
d="M448 184v-248l-384 384l384 384v-254q168 -4 253.5 46.5t113.5 127.5t9 168t-62 168q105 -114 144.5 -251.5t4.5 -255.5t-148.5 -196t-314.5 -73v0z" />
    <glyph glyph-name="uniE622" unicode="&#xe622;" 
d="M262 960q-43 -77 -62 -168t9 -168t113.5 -127.5t253.5 -46.5v254l384 -384l-384 -384v248q-201 -5 -314.5 73t-148.5 196t4.5 255.5t144.5 251.5v0z" />
    <glyph glyph-name="uniE623" unicode="&#xe623;" 
d="M0 -64h512v1024h-512v-1024v0zM320 832h128v-128h-128v128v0zM320 576h128v-128h-128v128v0zM320 320h128v-128h-128v128v0zM64 832h128v-128h-128v128v0zM64 576h128v-128h-128v128v0zM64 320h128v-128h-128v128v0zM576 640h448v-64h-448v64zM576 -64h128v256h192v-256
h128v576h-448v-576z" />
    <glyph glyph-name="uniE624" unicode="&#xe624;" 
d="M448 384v448q-93 0 -174.5 -35t-142.5 -96t-96 -142.5t-35 -174.5t35 -174.5t96 -142.5t142.5 -96t174.5 -35t174.5 35t142.5 96t96 142.5t35 174.5q0 27 -3 53t-9 52q-6 25 -15 49t-20 46l-401 -200v0zM913 712q-28 55 -69.5 101t-92.5 78q-52 33 -112.5 51t-126.5 18
v-448l401 200v0z" />
    <glyph glyph-name="uniE625" unicode="&#xe625;" 
d="M128 64h896v-128h-1024v1024h128v-896zM288 128q-20 0 -37.5 7.5t-30.5 20.5t-20.5 30.5t-7.5 37.5t7.5 37.5t20.5 30.5t30.5 20.5t37.5 7.5h4h4l104 172q-4 5 -7 11.5t-5 12.5q-2 7 -3 14t-1 14q0 20 7.5 37.5t20.5 30.5t30.5 20.5t37.5 7.5t37.5 -7.5t30.5 -20.5
t20.5 -30.5t7.5 -37.5q0 -7 -1 -14t-3 -14q-2 -6 -5 -12.5t-7 -11.5l104 -172h4h4h3.5h2.5l171 298q-4 6 -7 12t-6 13q-2 7 -3 14t-1 15q0 20 7.5 37.5t20.5 30.5t30.5 20.5t37.5 7.5t37.5 -7.5t30.5 -20.5t20.5 -30.5t7.5 -37.5t-7.5 -37.5t-20.5 -30.5t-30.5 -20.5
t-37.5 -7.5h-3.5h-2.5l-171 -298q4 -6 7 -12t6 -13q2 -7 3 -14t1 -15q0 -20 -7.5 -37.5t-20.5 -30.5t-30.5 -20.5t-37.5 -7.5t-37.5 7.5t-30.5 20.5t-20.5 30.5t-7.5 37.5q0 7 1 14t3 14q2 6 5 12.5t7 11.5l-104 172h-4h-4h-4h-4l-104 -172q4 -5 7 -11.5t5 -12.5q2 -7 3 -14
t1 -14q0 -20 -7.5 -37.5t-20.5 -30.5t-30.5 -20.5t-37.5 -7.5v0z" />
    <glyph glyph-name="uniE626" unicode="&#xe626;" 
d="M0 128h1024v-128h-1024v128zM128 384h128v-192h-128v192zM320 640h128v-448h-128v448zM512 448h128v-256h-128v256zM704 832h128v-640h-128v640z" />
  </font>
</defs>
</svg>
